HIERARCHY
ROOT root
{
	OFFSET 0.000000 0.000000 0.000000
	CHANNELS 6 Xposition Yposition Zposition Zrotation Yrotation Xrotation
	JOINT lhip
	{
		OFFSET 0.058581 -0.082280 -0.017664
		CHANNELS 3 Zrotation Yrotation Xrotation
		JOINT lknee
		{
			OFFSET 0.043451 -0.386469 0.008037
			CHANNELS 3 Zrotation Yrotation Xrotation
			JOINT lankle
			{
				OFFSET -0.014790 -0.426874 -0.037428
				CHANNELS 3 Zrotation Yrotation Xrotation
				JOINT ltoe
				{
					OFFSET 0.041054 -0.060286 0.122042
					CHANNELS 3 Zrotation Yrotation Xrotation
					End Site
					{
						OFFSET 0.000000 0.000000 0.000000
					}
				}
			}
		}
	}
	JOINT rhip
	{
		OFFSET -0.060310 -0.090513 -0.013543
		CHANNELS 3 Zrotation Yrotation Xrotation
		JOINT rknee
		{
			OFFSET -0.043257 -0.383688 -0.004843
			CHANNELS 3 Zrotation Yrotation Xrotation
			JOINT rankle
			{
				OFFSET 0.019056 -0.420046 -0.034562
				CHANNELS 3 Zrotation Yrotation Xrotation
				JOINT rtoe
				{
					OFFSET -0.034840 -0.062106 0.130323
					CHANNELS 3 Zrotation Yrotation Xrotation
					End Site
					{
						OFFSET 0.000000 0.000000 0.000000
					}
				}
			}
		}
	}
	JOINT lowerback
	{
		OFFSET 0.004439 0.124404 -0.038385
		CHANNELS 3 Zrotation Yrotation Xrotation
		JOINT upperback
		{
			OFFSET 0.004488 0.137956 0.026820
			CHANNELS 3 Zrotation Yrotation Xrotation
			JOINT chest
			{
				OFFSET -0.002265 0.056032 0.002855
				CHANNELS 3 Zrotation Yrotation Xrotation
				JOINT lowerneck
				{
					OFFSET -0.013390 0.211636 -0.033468
					CHANNELS 3 Zrotation Yrotation Xrotation
					JOINT upperneck
					{
						OFFSET 0.010113 0.088937 0.050410
						CHANNELS 3 Zrotation Yrotation Xrotation
						End Site
						{
							OFFSET 0.000000 0.000000 0.000000
						}
					}
				}
				JOINT lclavicle
				{
					OFFSET 0.071702 0.114000 -0.018898
					CHANNELS 3 Zrotation Yrotation Xrotation
					JOINT lshoulder
					{
						OFFSET 0.122921 0.045205 -0.019046
						CHANNELS 3 Zrotation Yrotation Xrotation
						JOINT lelbow
						{
							OFFSET 0.255332 -0.015649 -0.022946
							CHANNELS 3 Zrotation Yrotation Xrotation
							JOINT lwrist
							{
								OFFSET 0.265709 0.012698 -0.007375
								CHANNELS 3 Zrotation Yrotation Xrotation
								End Site
								{
									OFFSET 0.000000 0.000000 0.000000
								}
							}
						}
					}
				}
				JOINT rclavicle
				{
					OFFSET -0.082954 0.112472 -0.023707
					CHANNELS 3 Zrotation Yrotation Xrotation
					JOINT rshoulder
					{
						OFFSET -0.113228 0.046853 -0.008472
						CHANNELS 3 Zrotation Yrotation Xrotation
						JOINT relbow
						{
							OFFSET -0.260127 -0.014369 -0.031269
							CHANNELS 3 Zrotation Yrotation Xrotation
							JOINT rwrist
							{
								OFFSET -0.269108 0.006794 -0.006027
								CHANNELS 3 Zrotation Yrotation Xrotation
								End Site
								{
									OFFSET 0.000000 0.000000 0.000000
								}
							}
						}
					}
				}
			}
		}
	}
}
MOTION
Frames: 17
Frame Time: 0.033333
-0.436022 -0.094483 0.879810 -145.144325 -6.941654 108.890799 7.947752 -1.259078 4.461410 -9.439637 -12.822201 32.481108 -14.093876 3.267036 -0.275274 0.000000 -0.000000 0.000000 -6.480441 -4.774907 -65.170976 3.690634 -27.747223 54.937008 1.302667 3.602525 -22.058736 0.000000 -0.000000 0.000000 -3.350868 -6.599719 26.900742 1.748856 0.601349 9.627321 2.006486 -2.834818 -1.756746 -1.105838 7.582048 -10.285720 1.144503 -9.254117 -14.451333 -23.415298 1.552353 0.163004 -41.029778 -12.829017 -1.783697 71.039567 -48.924386 -72.709162 -9.487593 -18.348906 -45.640362 27.926832 2.872415 4.854465 44.074455 12.973367 2.447153 -32.829372 44.977721 -29.959449 -2.604717 7.356561 -14.144006 
-0.497336 0.011227 0.872545 -146.615558 -7.845713 108.361350 6.159935 -5.422336 6.660431 -5.896014 -7.176374 42.847552 -10.700028 8.481949 -2.702534 0.000000 -0.000000 0.000000 -3.982154 -1.426307 -61.155967 5.512081 -27.431830 41.272703 -0.867521 2.639291 -15.614207 0.000000 -0.000000 0.000000 -1.832378 -5.800919 23.753399 1.101133 3.237083 9.876248 1.767745 -2.328956 -0.194377 -0.791159 2.658044 -8.153265 1.363911 -8.689912 -15.892252 -23.604433 10.725609 1.288171 -48.509620 -8.372296 -2.113933 86.815856 -49.000973 -84.974228 -10.102555 -21.796766 -53.156459 26.177625 -1.920821 5.336238 45.332871 12.584910 1.314060 -35.030226 46.139027 -32.346274 -2.333648 7.126008 -19.161814 
-0.553776 0.117924 0.857620 -147.182018 -11.068948 105.991235 5.658806 -4.153757 3.817858 -7.279808 -4.774237 61.276487 -8.537560 8.161552 -3.293106 0.000000 -0.000000 0.000000 -0.270533 -1.500790 -55.805289 -0.715040 -25.679961 51.739017 -15.048422 -7.148488 -27.091551 0.000000 -0.000000 0.000000 -2.945810 -2.466016 22.994827 0.459117 5.663420 8.485425 1.562658 -1.112093 1.917317 0.111755 -0.315358 -5.132303 3.178904 -10.952855 -15.161279 -20.275696 15.932031 2.258443 -52.575526 -5.123979 -5.589165 96.373712 -49.737705 -90.245611 -10.734418 -20.300413 -55.717674 24.350968 -5.440156 4.953431 49.707575 8.927756 -1.288162 -37.727284 47.103486 -32.608676 -2.048785 6.921629 -21.129117 
-0.599809 0.216800 0.859050 -148.717670 -11.182055 105.918662 7.553830 -3.886346 -7.048714 -7.136534 0.671749 79.970452 -5.650864 9.389236 -5.704022 0.000000 -0.000000 0.000000 0.194372 1.857743 -50.817466 -2.113694 -22.217917 58.597477 -13.786924 -10.559626 -33.037350 0.000000 -0.000000 0.000000 -1.509558 0.319609 22.193608 0.031361 8.766610 7.756278 0.558139 1.028695 3.242175 0.182567 -3.750457 -5.241404 4.258400 -13.913679 -15.204451 -19.213076 18.863252 1.068408 -53.319637 -5.373369 -7.636454 98.889194 -48.504400 -90.863074 -9.400978 -17.080174 -56.156903 23.582578 -7.345746 3.403964 51.930863 8.286368 -2.424968 -36.030132 44.600996 -31.345810 -3.160035 6.334451 -24.416201 
-0.641517 0.318801 0.876820 -149.671927 -10.431095 105.266434 8.770760 -5.379387 -20.057275 -8.038292 4.211351 90.451170 -3.369843 6.948301 -8.582176 0.000000 -0.000000 0.000000 3.023300 1.528132 -38.783110 -1.531270 -21.101537 54.909444 -13.376239 -8.444350 -36.693632 0.000000 -0.000000 0.000000 -0.394408 3.689566 22.931242 -0.148324 8.839752 7.445786 0.661294 3.207954 2.860401 0.122400 -5.469244 -4.763221 5.027767 -15.337579 -15.003919 -19.834893 18.623343 -1.132908 -54.012440 -5.923489 -8.036970 101.042088 -45.957226 -91.415929 -8.024502 -16.463790 -57.577283 23.426436 -5.211149 3.597248 51.213817 10.137255 -4.519549 -30.672020 40.126412 -28.278215 -2.498401 5.311032 -28.601004 
-0.678345 0.426841 0.900083 -149.988104 -11.112579 104.948099 8.542667 -8.108975 -32.978103 -5.941178 6.474883 90.399824 -2.015376 6.534116 -9.719273 0.000000 -0.000000 0.000000 4.889722 -1.959341 -25.995564 0.869133 -16.948861 47.178230 -10.715576 -4.695670 -33.942426 0.000000 -0.000000 0.000000 -1.509404 8.172581 22.887188 -0.203896 7.226748 6.237927 1.510567 4.449965 2.125993 -0.154426 -7.784993 -3.604586 6.500508 -16.213400 -12.818463 -19.384105 16.626192 -2.922889 -53.488408 -8.908357 -7.654159 99.474719 -43.864079 -89.335640 -6.797615 -14.477200 -54.715027 22.692766 -3.077248 3.007703 52.222882 11.332996 -3.827953 -26.696282 36.019773 -25.675204 -0.035866 5.120033 -28.628430 
-0.714601 0.541630 0.923966 -150.990162 -11.639392 104.562012 9.063888 -10.740837 -42.243797 -2.805433 9.526952 80.819593 -0.722469 6.120486 -10.212290 0.000000 -0.000000 0.000000 4.949004 -4.218939 -13.433842 2.470899 -12.854268 38.371748 -4.475599 1.009524 -23.700182 0.000000 -0.000000 0.000000 -2.897701 12.065948 23.190125 -0.972906 5.745015 4.391093 1.555936 5.868655 2.382890 -0.797632 -7.400968 -4.416222 8.006226 -16.915788 -11.483339 -19.028115 13.916670 -6.344698 -49.669692 -12.688537 -6.186425 94.030084 -43.868920 -85.998087 -7.605353 -15.444045 -52.642802 22.774248 -1.569000 1.623195 55.368849 12.066025 0.092177 -26.651905 34.368340 -25.387617 -0.047972 5.606199 -25.743371 
-0.752675 0.660041 0.942217 -151.140545 -13.631986 104.602313 8.750305 -13.987279 -48.234765 -3.759867 12.662156 63.969523 -0.768733 3.514336 -10.099780 0.000000 -0.000000 0.000000 2.649587 -5.508914 -2.882647 2.147692 -10.093147 30.152031 5.040317 6.834603 -6.605093 0.000000 -0.000000 0.000000 -6.011532 15.930245 21.735115 -1.291418 3.377135 3.949708 1.637950 7.020017 1.445982 -2.265159 -6.850263 -2.783784 11.219656 -18.652716 -13.670131 -17.327458 9.637937 -8.488344 -46.012636 -17.049573 -3.803448 88.605976 -43.037458 -82.837164 -7.976019 -15.184784 -48.677116 22.577676 -0.313029 0.720755 59.744770 11.125924 4.606390 -29.259587 35.325919 -26.882603 -0.414896 5.216438 -24.655343 
-0.790571 0.780494 0.951458 -149.448265 -14.800554 102.918968 6.377163 -15.710479 -48.774156 -7.510980 10.059453 44.475361 -4.127370 0.562800 -7.642609 0.000000 -0.000000 0.000000 2.965968 -6.402850 7.308458 -1.057293 -7.751533 24.809080 9.968560 6.638843 1.796238 0.000000 -0.000000 0.000000 -7.638010 17.877842 21.328853 -1.954411 1.105281 3.659250 1.808890 7.585672 0.431542 -3.024180 -6.531095 -0.896499 14.001234 -20.780562 -14.060263 -15.463344 4.449908 -9.522311 -42.737055 -20.844243 -2.713051 89.839411 -43.158309 -81.612472 -9.491952 -16.320916 -44.288925 21.822885 2.314421 0.691780 63.038913 9.174884 6.696261 -30.102860 38.534265 -25.261235 0.298265 6.117368 -27.498824 
-0.829708 0.898100 0.948936 -147.554656 -13.512970 100.240332 3.572125 -14.475144 -45.255409 -9.136949 6.709196 29.340392 -8.514098 -2.942367 -6.897694 0.000000 -0.000000 0.000000 6.246037 -6.837680 12.584089 -5.232808 -6.316006 31.858248 8.536711 3.675441 -0.951056 0.000000 -0.000000 0.000000 -7.650921 16.822110 21.677099 -2.181278 0.245217 3.098335 1.815429 7.822616 -0.229676 -3.307716 -5.722591 -1.169267 14.787740 -21.424150 -12.067188 -14.558951 0.683715 -11.077634 -41.539862 -23.541905 -1.129531 102.431700 -45.645625 -86.694159 -12.543993 -16.814172 -35.599215 21.263441 4.994029 0.520547 64.161862 7.477887 7.224527 -29.245159 43.324438 -19.728222 4.634608 7.632668 -25.517139 
-0.870786 1.010502 0.935703 -144.830582 -12.404393 97.803570 -0.437042 -13.141773 -42.587765 -9.706312 5.864144 26.137201 -6.956084 -4.788793 -7.431098 0.000000 -0.000000 0.000000 7.824957 -6.573265 13.660704 -5.760363 -6.418150 44.757078 8.337446 4.343578 -2.914956 0.000000 -0.000000 0.000000 -7.308193 14.457478 22.315569 -2.369184 -1.058549 2.751104 1.549628 7.465661 -0.899855 -2.943966 -6.569789 -2.213813 15.359243 -19.564887 -10.295354 -14.342970 -3.468425 -13.032545 -42.200187 -25.303831 2.578927 122.687188 -48.298269 -98.099775 -12.315946 -13.165397 -22.002487 20.591249 7.450961 0.098492 64.886428 5.071454 6.719859 -29.836561 49.390051 -16.878338 6.295396 8.472398 -20.745103 
-0.910446 1.120086 0.916275 -144.680270 -11.517021 96.288235 -0.920292 -14.773781 -39.179749 -10.421918 7.573197 29.545883 2.766353 0.040157 -7.324142 0.000000 -0.000000 0.000000 4.955161 -6.275785 9.362477 -6.455855 -7.933717 63.275528 7.159516 0.185717 -4.558680 0.000000 -0.000000 0.000000 -8.260863 13.168482 21.887256 -1.886958 -1.513292 3.629910 0.971336 6.353795 -0.725320 -0.887641 -5.853793 -6.064171 15.179383 -17.665198 -9.441547 -15.340583 -7.343528 -13.211828 -41.212875 -27.906588 7.994301 143.685983 -51.671799 -111.873541 -6.037803 -10.122264 -8.825601 21.039267 9.127732 -0.708203 64.554580 3.694773 8.723675 -33.427013 53.543254 -19.234447 3.780110 9.080289 -19.040056 
-0.947048 1.225223 0.897412 -146.177332 -9.335746 94.016869 -0.767789 -11.999267 -37.031591 -9.681244 6.155927 46.638276 6.282632 5.420235 -20.305592 0.000000 -0.000000 0.000000 2.744261 -4.030428 1.315615 -6.523961 -7.705264 81.217898 1.602546 -8.022750 -9.831409 0.000000 -0.000000 0.000000 -8.291876 10.903792 23.533772 -0.891611 -1.979302 4.137732 1.052193 4.874331 0.067542 0.572653 -3.571506 -10.597928 13.898651 -14.255017 -9.011900 -15.041779 -12.797162 -10.793182 -38.751536 -25.669459 12.420357 161.023642 -57.095673 -125.734460 9.098617 -8.058800 0.525093 21.156412 12.602457 -1.698140 63.165486 3.199110 9.947261 -37.279491 56.162137 -24.871671 -0.027602 8.190222 -19.161336 
-0.980043 1.330620 0.891786 -148.669394 -8.135295 92.900607 -0.205431 -9.210460 -27.116842 -12.217635 2.798989 46.883114 8.584809 11.683995 -27.860273 0.000000 -0.000000 0.000000 -0.207959 -0.160423 -12.348565 -2.648165 -6.896049 92.156637 -2.328924 -10.322827 -14.071619 0.000000 -0.000000 0.000000 -9.765774 7.667473 24.065440 0.859662 -3.055179 6.318274 0.965010 2.302952 -0.554146 1.812100 3.266012 -14.636579 10.303086 -11.896324 -7.660105 -16.426346 -16.482748 -5.860094 -35.840134 -20.966806 13.761219 166.383908 -72.193256 -131.458913 19.852840 -9.799073 4.503483 23.660183 15.211944 -0.431465 61.693193 7.467799 11.583317 -37.475880 54.238225 -25.515810 -3.358947 7.991444 -19.055856 
-1.015542 1.437769 0.900588 -150.183098 -6.829762 93.059467 0.238865 -3.735148 -16.398400 -13.309730 -2.951821 43.754443 6.634446 12.691358 -30.050363 0.000000 -0.000000 0.000000 -3.543121 1.258847 -27.115494 -0.704000 -7.955603 92.136082 -1.372539 -10.453046 -17.113423 0.000000 -0.000000 0.000000 -9.292726 2.176708 23.322171 1.874767 -4.666560 5.239761 0.461045 -0.348475 0.431218 2.688601 9.512438 -14.237511 6.810435 -7.745167 -4.733402 -18.583691 -17.120523 -5.258358 -36.254621 -18.791331 14.346907 -5.869397 -77.971531 40.902451 22.547613 -12.129313 16.768607 25.729310 14.628508 -0.377770 62.544982 10.415369 13.520225 -31.900765 50.562202 -19.104760 -6.702008 7.968626 -15.855686 
-1.049280 1.553030 0.920570 -149.568147 -5.395873 92.868676 4.052671 0.739400 -5.475438 -13.752616 -8.806487 39.096343 -0.068109 6.891856 -23.274025 0.000000 -0.000000 0.000000 -6.167934 0.125319 -36.405405 -2.254725 -12.086688 81.010685 -2.204321 -11.302687 -18.955262 0.000000 -0.000000 0.000000 -7.311747 -3.000896 22.476315 2.413962 -6.845668 5.371646 0.390741 -3.206728 -0.019041 2.140209 13.796777 -12.946551 5.095004 -5.285811 -2.237769 -20.524109 -19.939212 -3.738666 -39.036215 -20.224361 12.432425 2.832718 -42.881273 31.056442 14.026805 -10.434668 27.418892 27.051387 13.166352 1.325996 63.506764 10.412231 13.221999 -28.307677 49.255766 -14.934370 -6.706907 7.518823 -20.062727 
-1.080856 1.674611 0.944540 -151.802750 -4.304189 93.303736 9.270634 3.013776 5.042127 -13.394557 -11.501993 31.617326 -9.965131 1.458424 -8.544427 0.000000 -0.000000 0.000000 -6.772910 1.118401 -40.759807 -0.830228 -15.831254 60.250042 -1.170077 -7.889966 -17.758746 0.000000 -0.000000 0.000000 -5.882295 -7.467907 20.453842 1.466226 -8.080076 8.260936 0.260162 -5.536870 -2.283610 1.135932 16.109414 -11.999121 5.447915 0.295869 -2.296148 -24.845140 -18.808484 -1.205246 -39.220446 -19.513324 6.285257 12.515377 -22.345202 1.852794 15.367787 -4.739085 19.771699 28.317775 11.331161 2.706985 62.372118 9.659632 14.654084 -22.387794 47.859827 -13.124843 -7.048568 6.888026 -22.114674 
